<svg width="20" height="20" viewBox="0 0 20 20" fill="none" xmlns="http://www.w3.org/2000/svg">
<path d="M6.90833 11.075C6.83023 11.1525 6.76823 11.2446 6.72592 11.3462C6.68362 11.4477 6.66183 11.5567 6.66183 11.6667C6.66183 11.7767 6.68362 11.8856 6.72592 11.9871C6.76823 12.0887 6.83023 12.1809 6.90833 12.2583L9.40833 14.7583C9.4858 14.8364 9.57797 14.8984 9.67952 14.9407C9.78107 14.983 9.88999 15.0048 10 15.0048C10.11 15.0048 10.2189 14.983 10.3205 14.9407C10.422 14.8984 10.5142 14.8364 10.5917 14.7583L13.0917 12.2583C13.2486 12.1014 13.3367 11.8886 13.3367 11.6667C13.3367 11.4447 13.2486 11.2319 13.0917 11.075C12.9347 10.9181 12.7219 10.8299 12.5 10.8299C12.2781 10.8299 12.0653 10.9181 11.9083 11.075L10.8333 12.1583V2.5C10.8333 2.27898 10.7455 2.06702 10.5893 1.91074C10.433 1.75446 10.221 1.66666 10 1.66666C9.77899 1.66666 9.56702 1.75446 9.41074 1.91074C9.25446 2.06702 9.16667 2.27898 9.16667 2.5V12.1583L8.09167 11.075C8.0142 10.9969 7.92203 10.9349 7.82048 10.8926C7.71893 10.8503 7.61001 10.8285 7.5 10.8285C7.38999 10.8285 7.28107 10.8503 7.17952 10.8926C7.07797 10.9349 6.9858 10.9969 6.90833 11.075ZM15 7.5H13.3333C13.1123 7.5 12.9004 7.58779 12.7441 7.74408C12.5878 7.90036 12.5 8.11232 12.5 8.33333C12.5 8.55434 12.5878 8.76631 12.7441 8.92259C12.9004 9.07887 13.1123 9.16666 13.3333 9.16666H15C15.221 9.16666 15.433 9.25446 15.5893 9.41074C15.7455 9.56702 15.8333 9.77898 15.8333 10V15.8333C15.8333 16.0543 15.7455 16.2663 15.5893 16.4226C15.433 16.5789 15.221 16.6667 15 16.6667H5C4.77899 16.6667 4.56702 16.5789 4.41074 16.4226C4.25446 16.2663 4.16667 16.0543 4.16667 15.8333V10C4.16667 9.77898 4.25446 9.56702 4.41074 9.41074C4.56702 9.25446 4.77899 9.16666 5 9.16666H6.66667C6.88768 9.16666 7.09964 9.07887 7.25592 8.92259C7.4122 8.76631 7.5 8.55434 7.5 8.33333C7.5 8.11232 7.4122 7.90036 7.25592 7.74408C7.09964 7.58779 6.88768 7.5 6.66667 7.5H5C4.33696 7.5 3.70107 7.76339 3.23223 8.23223C2.76339 8.70107 2.5 9.33696 2.5 10V15.8333C2.5 16.4964 2.76339 17.1323 3.23223 17.6011C3.70107 18.0699 4.33696 18.3333 5 18.3333H15C15.663 18.3333 16.2989 18.0699 16.7678 17.6011C17.2366 17.1323 17.5 16.4964 17.5 15.8333V10C17.5 9.33696 17.2366 8.70107 16.7678 8.23223C16.2989 7.76339 15.663 7.5 15 7.5Z" fill="#2A60AD"/>
</svg>
