<svg width="20" height="20" viewBox="0 0 20 20" fill="none" xmlns="http://www.w3.org/2000/svg">
<g clip-path="url(#clip0_290_1352)">
<path d="M10.0002 3.39665e-06C9.04493 -0.000783974 8.09443 0.135321 7.17773 0.40417L7.88273 2.8025C8.57051 2.6011 9.28358 2.49923 10.0002 2.5V17.5C9.28358 17.5008 8.57051 17.3989 7.88273 17.1975L7.17773 19.5958C8.55282 19.9991 9.99851 20.1021 11.4169 19.898C12.8353 19.6938 14.1932 19.1871 15.3987 18.4123C16.6042 17.6376 17.629 16.6128 18.4039 15.4073C19.1788 14.2019 19.6855 12.844 19.8898 11.4256C20.0941 10.0073 19.9912 8.56158 19.588 7.18647C19.1848 5.81136 18.4908 4.53896 17.553 3.45547C16.6152 2.37198 15.4554 1.5027 14.1523 0.906519C12.8492 0.31034 11.4332 0.00118781 10.0002 3.39665e-06Z" fill="#223E7C"/>
<path d="M2.49919 10C2.49918 9.3567 2.58094 8.71601 2.74253 8.09334L0.324195 7.46167C-0.110669 9.12821 -0.110669 10.8785 0.324195 12.545L2.74086 11.9108C2.57881 11.2869 2.49759 10.6447 2.49919 10Z" fill="#223E7C"/>
<path d="M6.1224 3.58342L4.8274 1.44092C3.35596 2.33264 2.13773 3.58674 1.28906 5.08342L3.46573 6.31592C4.10275 5.19266 5.01751 4.25179 6.1224 3.58342Z" fill="#223E7C"/>
<path d="M3.46768 13.6868L1.29102 14.9168C2.14013 16.4149 3.35997 17.6698 4.83352 18.5609L6.12768 16.4226C5.02111 15.7538 4.10511 14.8117 3.46768 13.6868Z" fill="#223E7C"/>
</g>
<defs>
<clipPath id="clip0_290_1352">
<rect width="20" height="20" fill="white"/>
</clipPath>
</defs>
</svg>
