<svg width="20" height="20" viewBox="0 0 20 20" fill="none" xmlns="http://www.w3.org/2000/svg">
<g clip-path="url(#clip0_290_1348)">
<path d="M9.36578 20C9.09276 19.9991 8.82321 19.9388 8.57578 19.8234C8.17162 19.6434 7.84702 19.3221 7.66291 18.9198C7.4788 18.5175 7.44781 18.0619 7.57578 17.6384L8.87661 13.3334H5.81161C5.42111 13.3338 5.03593 13.2428 4.68695 13.0676C4.33796 12.8924 4.03486 12.6379 3.80195 12.3245C3.56905 12.011 3.4128 11.6474 3.34574 11.2627C3.27867 10.878 3.30266 10.483 3.41578 10.1092L5.93578 1.77587C6.08938 1.26044 6.40602 0.808729 6.83815 0.488533C7.27029 0.168338 7.79462 -0.00306802 8.33244 4.15744e-05H11.4099C11.7597 0.000334193 12.1043 0.0853132 12.4141 0.247716C12.7239 0.410119 12.9898 0.645118 13.189 0.932628C13.3882 1.22014 13.5149 1.55161 13.5582 1.89872C13.6014 2.24583 13.56 2.59825 13.4374 2.92587L12.0349 6.66671H14.1658C14.62 6.66667 15.0656 6.79038 15.4548 7.02455C15.844 7.25871 16.1621 7.59449 16.3748 7.9958C16.5875 8.39711 16.6869 8.8488 16.6623 9.30234C16.6376 9.75588 16.4899 10.1941 16.2349 10.57L10.9016 19.1534C10.7367 19.4116 10.5098 19.6244 10.2415 19.7723C9.97321 19.9202 9.67213 19.9985 9.36578 20Z" fill="#223E7C"/>
</g>
<defs>
<clipPath id="clip0_290_1348">
<rect width="20" height="20" fill="white"/>
</clipPath>
</defs>
</svg>
