<svg width="24" height="24" viewBox="0 0 24 24" fill="none" xmlns="http://www.w3.org/2000/svg">
<g clip-path="url(#clip0_290_1377)">
<path d="M10.7766 0.0469551C10.275 0.112579 10.125 0.300079 10.0734 0.928205C10.0312 1.39227 9.94688 1.71102 9.76875 2.06727C9.45938 2.68602 8.84531 3.19227 8.17969 3.37977C7.80938 3.48289 7.07344 3.46414 6.67031 3.33758C6.31875 3.22977 5.75156 2.88289 5.50781 2.62977C5.33438 2.44227 5.07656 2.37195 4.83281 2.43758C4.58906 2.5032 4.03594 2.95789 3.39844 3.61414C2.71875 4.31727 2.53125 4.55164 2.49844 4.7532C2.45156 5.05789 2.51719 5.22195 2.83594 5.57821C3.62344 6.45477 3.76875 7.57039 3.23438 8.62508C3.06563 8.96258 2.50313 9.4782 2.10469 9.67039C1.69688 9.86727 1.22344 9.98445 0.853125 9.98445C0.478125 9.98445 0.285938 10.0923 0.140625 10.3829C0.0234375 10.6173 0.0234375 10.622 0.0234375 11.9766C0.0234375 13.2141 0.0328125 13.3501 0.1125 13.5141C0.248438 13.7907 0.496875 13.9079 1.06406 13.9641C1.6125 14.0204 1.9125 14.1282 2.35781 14.4235C3.075 14.9016 3.4875 15.6845 3.4875 16.5704C3.48281 17.2313 3.28125 17.761 2.81719 18.3141C2.66719 18.497 2.51719 18.6891 2.48906 18.7407C2.42344 18.8673 2.42344 19.1954 2.48906 19.3266C2.65313 19.636 3.81094 20.8501 4.36875 21.3001C4.75781 21.6095 5.12813 21.5907 5.50313 21.2345C5.97656 20.7938 6.55313 20.5313 7.21875 20.461C7.78125 20.4048 8.44219 20.6063 8.97188 20.9954C9.5625 21.4313 9.98438 22.2891 9.98438 23.0485C9.98438 23.4048 10.0828 23.672 10.2703 23.8079C10.4766 23.9626 11.0531 24.0141 12.2813 23.9907C13.1719 23.972 13.3641 23.9579 13.5141 23.8876C13.8047 23.747 13.8844 23.5829 13.9266 23.0673C13.9828 22.3313 14.2219 21.7829 14.6953 21.3001C15.2203 20.7657 15.7219 20.5595 16.5 20.5595C17.2641 20.5548 17.8453 20.7845 18.4313 21.3188C18.7406 21.6001 19.0312 21.6563 19.3359 21.5016C19.6406 21.347 20.8219 20.222 21.3047 19.622C21.4781 19.411 21.4922 19.3688 21.4922 19.1016C21.4922 18.7876 21.5203 18.8345 21 18.211C20.3297 17.4095 20.2641 16.111 20.85 15.2391C21.3469 14.4985 22.0922 14.072 22.9688 14.0251C23.5359 13.997 23.7141 13.9126 23.8641 13.6079C23.9766 13.3876 23.9766 13.3548 23.9766 12.0235C23.9766 10.786 23.9672 10.6501 23.8875 10.486C23.7656 10.2376 23.4938 10.0923 23.0859 10.0548C22.3453 9.98445 21.75 9.73133 21.3234 9.31414C20.2828 8.29227 20.2266 6.82039 21.1828 5.68602C21.3328 5.5032 21.4828 5.31102 21.5109 5.25945C21.5766 5.13289 21.5766 4.80477 21.5109 4.67352C21.3469 4.36414 20.1891 3.15008 19.6313 2.70008C19.2469 2.39071 18.8906 2.40945 18.5063 2.76102C17.9344 3.28133 17.3344 3.52508 16.5938 3.52977C16.1344 3.53445 15.8531 3.46883 15.4453 3.27196C14.5922 2.85008 14.0203 1.9032 14.0156 0.914143C14.0109 0.342268 13.8047 0.107893 13.2516 0.0422668C12.8484 -0.00460815 11.1469 8.01086e-05 10.7766 0.0469551ZM12.9047 5.17977C16.4156 5.63914 19.0266 8.74695 18.8766 12.2813C18.8344 13.2751 18.6047 14.1657 18.15 15.0845L17.9344 15.5204L16.4391 14.0251L14.9438 12.5298L15.0609 12.1548C15.7922 9.84852 14.475 7.4157 12.1313 6.75008C11.6297 6.60477 10.7391 6.57195 10.2188 6.67977C9.73594 6.7782 9.67969 6.80633 9.58125 6.99383C9.41719 7.30789 9.46406 7.37352 10.6453 8.55945L11.7281 9.64695L11.7 9.82977C11.6859 9.9282 11.6531 10.186 11.625 10.4063C11.5969 10.6266 11.55 10.922 11.5172 11.0626L11.4609 11.3204L11.2031 11.3766C10.7063 11.4891 9.88125 11.5735 9.77813 11.522C9.72188 11.4938 9.20625 11.0016 8.625 10.4251C7.575 9.38445 7.56563 9.37508 7.36406 9.37508C7.04063 9.37508 6.92344 9.52977 6.82031 10.097C6.47813 12.0001 7.45781 13.9032 9.19688 14.7141C10.1578 15.1641 11.2875 15.2391 12.2953 14.9204L12.6703 14.8032L14.1656 16.2985C14.9859 17.1188 15.6563 17.8032 15.6563 17.822C15.6563 17.8782 14.6578 18.361 14.2359 18.511C11.7516 19.3829 8.88281 18.6891 7.05469 16.7766C4.65469 14.2688 4.4625 10.5048 6.59063 7.75789C8.07188 5.84539 10.4813 4.86102 12.9047 5.17977Z" fill="#1C3D7B"/>
</g>
<defs>
<clipPath id="clip0_290_1377">
<rect width="24" height="24" fill="white"/>
</clipPath>
</defs>
</svg>
