<svg width="20" height="20" viewBox="0 0 20 20" fill="none" xmlns="http://www.w3.org/2000/svg">
<g clip-path="url(#clip0_290_1357)">
<path d="M5 6.66675H2.5C1.83696 6.66675 1.20107 6.93014 0.732233 7.39898C0.263392 7.86782 0 8.50371 0 9.16675L0 15.8334C0 16.4965 0.263392 17.1323 0.732233 17.6012C1.20107 18.07 1.83696 18.3334 2.5 18.3334H5V6.66675Z" fill="#223E7C"/>
<path d="M11.666 6.66669L12.1285 3.89336C12.2086 3.48006 12.1485 3.05185 11.9577 2.67659C11.7669 2.30132 11.4563 2.00047 11.0752 1.82169C10.6381 1.63086 10.1446 1.61403 9.69551 1.77462C9.24641 1.93521 8.87551 2.26113 8.65852 2.68586L6.66602 6.66669V18.3334H18.3327L19.9993 9.16669V6.66669H11.666Z" fill="#223E7C"/>
</g>
<defs>
<clipPath id="clip0_290_1357">
<rect width="20" height="20" fill="white"/>
</clipPath>
</defs>
</svg>
