<svg width="20" height="20" viewBox="0 0 20 20" fill="none" xmlns="http://www.w3.org/2000/svg">
<g clip-path="url(#clip0_290_1360)">
<path d="M8.78354 12.9082C9.28021 13.404 9.28021 14.209 8.78354 14.7057L4.19354 19.2957C3.20355 20.2857 1.57854 20.254 0.628545 19.1999C-0.261455 18.2115 -0.122288 16.664 0.817712 15.724L5.30938 11.2324C5.80521 10.7365 6.61021 10.7357 7.10604 11.2324L8.78271 12.909L8.78354 12.9082ZM13.2935 9.16902C14.346 9.17069 15.4135 9.58652 16.1994 10.3732C16.6669 10.8332 17.2935 10.7449 17.5002 10.6024C19.016 9.55319 20.0152 7.81652 20.0152 5.83319C20.0152 5.48902 19.9844 5.15236 19.9269 4.82486C19.8135 4.18486 19.0044 3.95736 18.5444 4.41652L17.1719 5.78902C16.2169 6.74402 14.961 6.89069 14.1177 6.20069C13.1477 5.40736 13.0944 3.97402 13.9585 3.10986L15.596 1.47236C16.0552 1.01236 15.8302 0.20069 15.1902 0.0873568C14.8627 0.0290234 14.526 -0.000976562 14.1819 -0.000976562C11.7294 -0.000976562 9.63604 1.51402 8.77438 3.65819C8.60188 4.08652 8.70271 4.57902 9.02938 4.90486L13.2935 9.16819V9.16902ZM15.021 11.5515C14.3869 10.9174 13.4952 10.7124 12.6844 10.9174L6.66605 4.89986V3.33236C6.66605 2.70569 6.33105 2.12569 5.78771 1.81236L2.94938 0.17569C2.43438 -0.12181 1.78355 -0.0359766 1.36271 0.384857L0.386045 1.36152C-0.0356216 1.78236 -0.121455 2.43402 0.176045 2.94902L1.81355 5.78819C2.12688 6.33152 2.70605 6.66569 3.33271 6.66569H4.89771L10.9177 12.6849C10.7135 13.4949 10.9177 14.3865 11.5519 15.0207L15.766 19.1899C16.7219 20.1457 18.3727 20.2365 19.3277 19.2799C20.2844 18.3215 20.1635 16.8907 19.3269 15.8115L15.021 11.5515Z" fill="#1C3D7B"/>
</g>
<defs>
<clipPath id="clip0_290_1360">
<rect width="20" height="20" fill="white"/>
</clipPath>
</defs>
</svg>
