<svg width="20" height="20" viewBox="0 0 20 20" fill="none" xmlns="http://www.w3.org/2000/svg">
<g clip-path="url(#clip0_290_1370)">
<path d="M19.73 5.83333H18.0133C18.5008 4.2025 18.4133 2.90583 17.7533 2.24583C17.3733 1.86583 16.7817 1.675 16.0367 1.675C13.8125 1.675 10.2192 3.37333 6.79667 6.79667C6.33417 7.25917 5.91167 7.72417 5.5125 8.18917L5.0075 6.25833C5.20833 6.04417 5.40667 5.82917 5.6175 5.61833C10.6267 0.610834 16.475 -1.38833 18.9325 1.0675C19.9975 2.1325 20.2225 3.8375 19.73 5.83333ZM15.415 3.75L16.395 7.5H20V8.26417L17.25 9.855L18.355 13.2125L17.73 13.6483L15.0125 11.5475L12.2833 13.6575L11.6825 13.205L12.7692 9.80833L10 8.26833V7.5H13.625L14.6067 3.75H15.415ZM16.25 15.8333C15.56 15.8333 15 16.3933 15 17.0833C15 17.7733 15.56 18.3333 16.25 18.3333C16.94 18.3333 17.5 17.7733 17.5 17.0833C17.5 16.3933 16.94 15.8333 16.25 15.8333ZM1.25 2.5C0.56 2.5 0 3.06 0 3.75C0 4.44 0.56 5 1.25 5C1.94 5 2.5 4.44 2.5 3.75C2.5 3.06 1.94 2.5 1.25 2.5ZM5.41667 0C4.72667 0 4.16667 0.56 4.16667 1.25C4.16667 1.94 4.72667 2.5 5.41667 2.5C6.10667 2.5 6.66667 1.94 6.66667 1.25C6.66667 0.56 6.10667 0 5.41667 0ZM6.66667 10.5567L4.30083 9.86583L3.61 7.5H3.07083L2.37 9.86417L0 10.5567V11.0958L2.36917 11.7975L3.07083 14.1667H3.61L4.3025 11.7967L6.66667 11.0958V10.5567ZM11.2392 14.965C9.30583 16.5233 7.41333 17.535 5.83333 18.0092C4.2025 18.4967 2.88583 18.4342 2.22667 17.775C1.84667 17.395 1.65583 16.8033 1.65583 16.0583C1.65583 15.8667 1.68583 15.6525 1.71083 15.4417L1.02833 13.1383L0.615833 13.0158C-0.291667 15.5092 -0.219167 17.6842 1.04833 18.9525C2.11333 20.0175 3.8375 20.22 5.83333 19.7275C7.905 19.215 10.2892 17.93 12.6058 16L11.24 14.9642L11.2392 14.965Z" fill="#1C3D7B"/>
</g>
<defs>
<clipPath id="clip0_290_1370">
<rect width="20" height="20" fill="white"/>
</clipPath>
</defs>
</svg>
