<svg width="24" height="24" viewBox="0 0 24 24" fill="none" xmlns="http://www.w3.org/2000/svg">
<g clip-path="url(#clip0_290_1340)">
<path d="M11.0387 0.0749168C10.3262 0.234291 9.65116 0.567104 9.11209 1.03117C8.39959 1.64054 8.27303 1.73429 8.00116 1.86554C7.58866 2.0671 7.23709 2.14679 6.49178 2.19835C5.19334 2.2921 4.26991 2.70461 3.44022 3.5671C3.06522 3.96085 2.89178 4.20461 2.67147 4.64054C2.35272 5.27804 2.26834 5.63898 2.16053 6.84367C2.09022 7.67804 1.86991 8.16554 1.26053 8.84054C0.669906 9.49679 0.351156 10.0499 0.135531 10.7859C-0.00509375 11.2827 -0.0425937 12.3515 0.0699062 12.8952C0.233969 13.7202 0.608969 14.4374 1.24178 15.1359C1.86991 15.839 2.09022 16.3124 2.16053 17.1562C2.26834 18.3609 2.35272 18.7218 2.67147 19.3593C2.89178 19.7952 3.06522 20.039 3.44022 20.4327C4.26991 21.2952 5.19334 21.7077 6.49178 21.8015C7.66366 21.8859 8.09491 22.0593 8.88709 22.7765C9.55741 23.3859 10.284 23.7655 11.1043 23.9296C11.648 24.0421 12.7168 24.0046 13.2137 23.864C13.9496 23.6484 14.5027 23.3296 15.159 22.739C15.834 22.1296 16.3215 21.9093 17.1558 21.839C18.0418 21.7593 18.4027 21.703 18.7308 21.5905C19.4574 21.3468 20.0293 20.9812 20.559 20.4327C21.3512 19.603 21.7121 18.7546 21.8012 17.5077C21.8855 16.3359 22.059 15.9046 22.7762 15.1124C23.6199 14.1843 23.9996 13.2187 23.9996 11.9999C23.9996 10.7812 23.6199 9.81554 22.7762 8.88742C22.059 8.09523 21.8855 7.66398 21.8012 6.4921C21.7121 5.24523 21.3512 4.39679 20.559 3.5671C20.0293 3.01867 19.4574 2.65304 18.7308 2.40929C18.4027 2.29679 18.0418 2.24054 17.1558 2.16085C16.3215 2.09054 15.8246 1.86554 15.1543 1.25617C14.5215 0.679604 13.9543 0.351479 13.2137 0.135855C12.7449 -8.39233e-05 11.5308 -0.032896 11.0387 0.0749168ZM12.6793 4.28898C13.7621 4.34523 15.0324 4.76711 16.0543 5.4046C17.9668 6.59054 19.2652 8.5171 19.6402 10.7202C19.7668 11.4562 19.7668 12.5437 19.6402 13.2796C19.1668 16.0687 17.2074 18.389 14.5355 19.3218C13.6637 19.6265 12.9699 19.739 11.9762 19.739C9.96522 19.739 8.11834 18.9937 6.64647 17.5874C5.69022 16.6734 5.01522 15.5812 4.59803 14.278C4.12928 12.8155 4.14803 11.0765 4.64491 9.59054C5.04803 8.38117 5.61522 7.46242 6.53866 6.53898C6.84803 6.2296 7.30272 5.83585 7.54647 5.66242C8.36209 5.08585 9.46834 4.60773 10.4715 4.40148C10.9215 4.30773 11.8402 4.22335 12.0933 4.24679C12.159 4.25617 12.4215 4.27492 12.6793 4.28898Z" fill="#1C3D7B"/>
<path d="M10.8785 5.69986C9.54258 5.92486 8.09883 6.73111 7.21758 7.74361C6.43477 8.64361 5.89102 9.77329 5.69883 10.8983C5.60039 11.4514 5.60039 12.5483 5.69883 13.1014C6.15352 15.7405 8.30039 17.878 10.9207 18.3045C11.4879 18.3936 12.5051 18.3936 13.0676 18.3045C15.716 17.8733 17.8723 15.717 18.3035 13.0686C18.3926 12.5108 18.3926 11.4889 18.3035 10.9311C17.8723 8.28736 15.7113 6.12642 13.0676 5.69517C12.5285 5.60611 11.4129 5.61079 10.8785 5.69986ZM13.3582 12.7264L11.0145 15.0702L9.66914 13.7249L8.31914 12.3749L8.78789 11.9061L9.25664 11.4374L10.1004 12.2811C10.5645 12.7452 10.9676 13.1249 10.991 13.1249C11.0191 13.1249 11.8723 12.2905 12.8895 11.2733L14.741 9.42173L15.2191 9.89985L15.702 10.3827L13.3582 12.7264Z" fill="#1C3D7B"/>
</g>
<defs>
<clipPath id="clip0_290_1340">
<rect width="24" height="24" fill="white"/>
</clipPath>
</defs>
</svg>
