<svg width="20" height="20" viewBox="0 0 20 20" fill="none" xmlns="http://www.w3.org/2000/svg">
<g clip-path="url(#clip0_290_1333)">
<path d="M9.67188 0.699219C9.61328 0.738281 9.52734 0.824219 9.48828 0.882812C9.41797 0.992188 9.41406 1.16016 9.41406 5.89844C9.41406 10.6367 9.41797 10.8047 9.48828 10.9141C9.65234 11.1602 9.70312 11.1719 10.5859 11.1719C11.4688 11.1719 11.5195 11.1602 11.6836 10.9141C11.7539 10.8047 11.7578 10.6367 11.7578 5.89844C11.7578 1.16016 11.7539 0.992188 11.6836 0.882812C11.5195 0.636719 11.4688 0.625 10.5859 0.625C9.86719 0.625 9.77344 0.632812 9.67188 0.699219Z" fill="#223E7C"/>
<path d="M0.257812 1.87109C0.199219 1.91016 0.113281 1.99609 0.0742188 2.05469C0.00390625 2.16406 0 2.30859 0 5.89844C0 9.48828 0.00390625 9.63281 0.0742188 9.74219C0.113281 9.80078 0.199219 9.88672 0.257812 9.92578C0.367188 9.99609 0.515625 10 4.30859 10H8.24219V5.89844V1.79688H4.30859C0.515625 1.79688 0.367188 1.80078 0.257812 1.87109Z" fill="#223E7C"/>
<path d="M12.9297 7.14041L12.9336 10.1365L13.1367 10.2303C13.6016 10.449 13.9883 11.0076 14.0625 11.5623C14.1211 12.0232 14.1133 15.7303 14.0547 15.7693C14.0273 15.7849 13.8359 15.8045 13.6289 15.8123C13.0352 15.8357 12.7656 15.7381 12.1484 15.2771C11.7109 14.9529 11.4297 14.7967 11.0547 14.6678C10.1484 14.3592 9.125 14.4803 8.32422 14.9881C8.20312 15.0662 7.98438 15.2185 7.83203 15.3357C7.26953 15.7615 6.71875 15.9178 6.17969 15.8045C5.78906 15.7224 5.55469 15.6053 5.11719 15.281C4.65234 14.9295 4.33203 14.7615 3.88672 14.6248C3.57422 14.531 3.47266 14.5193 2.98828 14.5193C2.55469 14.5193 2.37891 14.5349 2.13672 14.6013C1.78125 14.699 1.23438 14.9724 0.957031 15.1912C0.851562 15.2771 0.664062 15.406 0.550781 15.4763C0.433594 15.5467 0.261719 15.6795 0.167969 15.7654C0.0078125 15.9217 0 15.9373 0 16.156C0 16.5467 0.214844 16.7732 0.585938 16.7693C0.8125 16.7693 1.0625 16.6443 1.53125 16.2888C1.94141 15.9763 2.17969 15.8513 2.51953 15.7615C3.12891 15.6053 3.82031 15.7849 4.375 16.2498C4.80469 16.6053 5.30859 16.8553 5.84375 16.9724C6.26172 17.0662 7.05469 17.0388 7.44141 16.9138C7.84375 16.7849 8.19141 16.5974 8.60156 16.2888C9.15625 15.867 9.55859 15.7029 10.0508 15.7029C10.4727 15.7029 10.9766 15.9021 11.3711 16.2224C11.8555 16.617 12.3281 16.8513 12.875 16.9724C13.293 17.0662 14.0859 17.0388 14.4727 16.9138C14.8672 16.7888 15.207 16.6053 15.6055 16.3084C16.0859 15.949 16.2383 15.8826 16.7617 15.7888C17.1719 15.7146 17.2422 15.7146 17.4648 15.7615C17.8203 15.8357 18.0977 15.9685 18.457 16.2381C19.0039 16.6521 19.168 16.7381 19.4141 16.7381C19.7812 16.7381 20 16.5154 20 16.1443C20 15.906 19.8984 15.7381 19.6797 15.6013C19.5859 15.5428 19.3594 15.3826 19.1719 15.242L18.8281 14.9881V12.4959C18.8281 9.84744 18.8203 9.69901 18.6328 8.96072C18.043 6.61697 16.043 4.73416 13.6445 4.26151C13.4336 4.22244 13.1875 4.17947 13.0977 4.16776L12.9297 4.14822V7.14041Z" fill="#223E7C"/>
<path d="M2.39844 16.8904C2.24219 16.9217 2.05078 16.9646 1.96875 16.992C1.72266 17.0701 1.16797 17.3709 0.957031 17.5349C0.851562 17.6209 0.664062 17.7498 0.550781 17.8201C0.433594 17.8904 0.261719 18.0232 0.167969 18.1092C0.0078125 18.2654 0 18.281 0 18.4998C0 18.8904 0.214844 19.117 0.585938 19.1131C0.8125 19.1131 1.0625 18.9881 1.53125 18.6326C1.94141 18.3201 2.17969 18.1951 2.51953 18.1053C3.12891 17.949 3.82031 18.1287 4.375 18.5935C4.80469 18.949 5.30859 19.199 5.84375 19.3162C6.26172 19.4099 7.05469 19.3826 7.44141 19.2576C7.84375 19.1287 8.19141 18.9412 8.60156 18.6326C9.15625 18.2107 9.55859 18.0467 10.0508 18.0467C10.4727 18.0467 10.9766 18.2459 11.3711 18.5662C11.8555 18.9607 12.3281 19.1951 12.875 19.3162C13.293 19.4099 14.0859 19.3826 14.4727 19.2576C14.875 19.1287 15.2227 18.9412 15.6328 18.6326C16.043 18.3201 16.2812 18.1951 16.6211 18.1053C17.2422 17.9451 17.9023 18.1248 18.5 18.6131C18.6172 18.7068 18.8203 18.8513 18.957 18.9334C19.1602 19.0545 19.2344 19.0818 19.4141 19.0818C19.7812 19.0818 20 18.8592 20 18.4881C20 18.2381 19.9023 18.0857 19.6289 17.9099C19.5078 17.8357 19.2852 17.6756 19.1289 17.5584C18.3516 16.9646 17.4375 16.7303 16.5273 16.8904C15.9297 16.9959 15.5195 17.1873 14.8828 17.6638C14.2734 18.117 13.7617 18.2654 13.2109 18.1482C12.8203 18.0662 12.5859 17.949 12.1484 17.6248C11.7148 17.2967 11.4297 17.1404 11.0547 17.0115C10.1484 16.7029 9.125 16.824 8.32422 17.3318C8.20312 17.4099 7.98438 17.5623 7.83203 17.6795C7.30469 18.0779 6.77344 18.2459 6.27344 18.1638C5.8125 18.0896 5.58984 17.9842 5.05859 17.5818C4.42188 17.0974 3.83984 16.8826 3.10547 16.8553C2.83594 16.8435 2.57031 16.8592 2.39844 16.8904Z" fill="#223E7C"/>
</g>
<defs>
<clipPath id="clip0_290_1333">
<rect width="20" height="20" fill="white"/>
</clipPath>
</defs>
</svg>
