<svg width="18" height="18" viewBox="0 0 18 18" fill="none" xmlns="http://www.w3.org/2000/svg">
<g clip-path="url(#clip0_290_2587)">
<path d="M0.232031 0.0667969C0.0140625 0.210938 0 0.263672 0 1.04414V1.75781H2.98828H5.97656V1.04414C5.97656 0.263672 5.9625 0.210938 5.74453 0.0667969C5.64609 0.00351572 5.53008 0 2.98828 0C0.446484 0 0.330469 0.00351572 0.232031 0.0667969Z" fill="#1C3D7B"/>
<path d="M0 10.2375C0 17.4551 0.00351562 17.6695 0.0667969 17.768C0.101953 17.8207 0.179297 17.898 0.232031 17.9332C0.330469 17.9965 0.569531 18 8.99648 18C17.5605 18 17.659 18 17.7715 17.9297C17.8312 17.891 17.9086 17.8102 17.9438 17.7469C18 17.6379 18.0035 17.2336 17.993 11.4363L17.9824 5.23828L17.8488 5.1082C17.7223 4.98164 17.7082 4.97461 17.4797 4.97461H17.2441L14.625 6.51094L12.0059 8.04375L11.9883 6.64102L11.9707 5.23828L11.8371 5.1082C11.7105 4.98164 11.6965 4.97461 11.468 4.97461H11.2324L8.61328 6.51094L5.99414 8.04375L5.98359 5.42813L5.97656 2.8125H2.98828H0V10.2375ZM7.8293 11.7633C7.88203 11.8055 7.95937 11.8898 7.99805 11.9566C8.06484 12.0691 8.06836 12.1395 8.06836 13.2363C8.06836 14.3332 8.06484 14.4035 7.99805 14.516C7.95937 14.5828 7.88203 14.6672 7.8293 14.7094C7.73086 14.7797 7.6957 14.7832 6.50391 14.7832C5.31211 14.7832 5.27695 14.7797 5.17852 14.7094C5.12578 14.6672 5.04844 14.5828 5.00977 14.516C4.94297 14.407 4.93945 14.3227 4.92891 13.3945C4.91484 12.266 4.92891 12.0762 5.03789 11.9109C5.19609 11.6719 5.22422 11.6684 6.54609 11.6789C7.68516 11.6895 7.73438 11.693 7.8293 11.7633ZM13.841 11.7633C13.8937 11.8055 13.9711 11.8898 14.0098 11.9566C14.0766 12.0691 14.0801 12.1395 14.0801 13.2363C14.0801 14.3332 14.0766 14.4035 14.0098 14.516C13.9711 14.5828 13.8937 14.6672 13.841 14.7094C13.7426 14.7797 13.7074 14.7832 12.5156 14.7832C11.3238 14.7832 11.2887 14.7797 11.1902 14.7094C11.1375 14.6672 11.0602 14.5828 11.0215 14.516C10.9547 14.407 10.9512 14.3227 10.9406 13.3945C10.9266 12.266 10.9406 12.0762 11.0496 11.9109C11.2078 11.6719 11.2359 11.6684 12.5578 11.6789C13.6969 11.6895 13.7461 11.693 13.841 11.7633Z" fill="#1C3D7B"/>
</g>
<defs>
<clipPath id="clip0_290_2587">
<rect width="18" height="18" fill="white"/>
</clipPath>
</defs>
</svg>
