<svg width="163" height="74" viewBox="0 0 163 74" fill="none" xmlns="http://www.w3.org/2000/svg">
<g clip-path="url(#clip0_2_2)">
<path d="M26.3224 28.9654V74L33.1153 70.0409V36.0685C30.1288 34.5256 27.7572 32.022 26.3224 28.9654Z" fill="url(#paint0_linear_2_2)"/>
<path d="M35.3699 37.0291V68.7309L41.7236 65.0047V37.786C41.2551 37.8151 40.7866 37.8442 40.3181 37.8442C38.5906 37.8442 36.9217 37.5531 35.3699 37.0291Z" fill="url(#paint1_linear_2_2)"/>
<path d="M43.1875 37.5822V64.1314L50.0975 60.1141V34.3509C48.1358 35.952 45.7934 37.0874 43.1875 37.5822Z" fill="url(#paint2_linear_2_2)"/>
<path d="M0 59.9977L6.20729 63.6365V36.1267L16.2795 30.3918V69.4587L23.1309 73.4469V18.9512L0 32.3423V59.9977Z" fill="url(#paint3_linear_2_2)"/>
<path d="M39.8204 34.9913C45.9398 34.9913 50.9174 30.0425 50.9174 23.9583C50.9174 20.5232 47.3745 13.3037 44.3001 7.68529C41.8992 3.37687 39.8204 0 39.8204 0C39.8204 0 37.5951 3.58065 35.1649 8.06373C32.1198 13.6239 28.7526 20.6105 28.7526 23.9874C28.7234 30.0716 33.6716 34.9913 39.8204 34.9913Z" fill="url(#paint4_linear_2_2)"/>
<path d="M35.6919 31.4689C30.3045 26.4036 32.1198 18.1652 32.1198 18.1652C27.3765 27.3643 35.6919 31.4689 35.6919 31.4689Z" fill="white"/>
<path d="M75.6587 59.6774V50.8859L71.8523 59.6774H70.9447L67.109 50.8859V59.6774H65.6451V48.1495H67.1969L71.3839 57.6688L75.6001 48.1495H77.1227V59.6774H75.6587Z" fill="url(#paint5_linear_2_2)"/>
<path d="M90.0643 48.1495H91.294L96.0374 59.6774H94.4855L93.1972 56.3006H88.2197L86.9021 59.6774H85.321L90.0643 48.1495ZM92.7287 55.1652L90.6792 49.8379L88.6296 55.1652H92.7287Z" fill="url(#paint6_linear_2_2)"/>
<path d="M103.035 53.8261C103.035 53.1275 103.152 52.4288 103.416 51.7593C103.65 51.0897 104.031 50.4784 104.499 49.8961C104.968 49.343 105.553 48.9064 106.227 48.557C106.9 48.2368 107.691 48.0622 108.569 48.0622C109.594 48.0622 110.502 48.2951 111.234 48.7608C111.966 49.2266 112.522 49.8379 112.873 50.5657L111.702 51.3226C111.468 50.8277 111.175 50.4493 110.824 50.1582C110.472 49.867 110.092 49.6633 109.682 49.5468C109.272 49.4304 108.862 49.3722 108.481 49.3722C107.837 49.3722 107.281 49.4886 106.783 49.7506C106.285 50.0126 105.875 50.3619 105.524 50.7986C105.173 51.2353 104.938 51.701 104.763 52.2541C104.587 52.7781 104.499 53.3312 104.499 53.8552C104.499 54.4375 104.587 55.0197 104.792 55.5728C104.997 56.1259 105.26 56.6208 105.641 57.0283C105.992 57.4359 106.432 57.7852 106.9 58.0472C107.398 58.3092 107.925 58.4257 108.511 58.4257C108.92 58.4257 109.33 58.3674 109.74 58.2219C110.15 58.0763 110.56 57.8725 110.941 57.5523C111.321 57.2612 111.614 56.8537 111.819 56.3879L113.049 57.0574C112.815 57.6397 112.434 58.1054 111.936 58.513C111.438 58.9205 110.882 59.2117 110.267 59.4154C109.652 59.6192 109.038 59.7356 108.452 59.7356C107.661 59.7356 106.929 59.561 106.256 59.2116C105.583 58.8623 105.026 58.4257 104.528 57.8434C104.031 57.2612 103.679 56.6499 103.416 55.9221C103.152 55.2526 103.035 54.5539 103.035 53.8261Z" fill="url(#paint7_linear_2_2)"/>
<path d="M129.885 49.4595H125.903V59.6774H124.439V49.4595H120.427V48.1495H129.885V49.4595Z" fill="url(#paint8_linear_2_2)"/>
<path d="M146.047 58.3674V59.6774H138.171V48.1495H145.901V49.4595H139.664V53.1857H145.11V54.4084H139.664V58.3966H146.047V58.3674Z" fill="url(#paint9_linear_2_2)"/>
<path d="M154.685 59.6774V48.1495H159.516C160.013 48.1495 160.482 48.266 160.921 48.4697C161.331 48.6735 161.712 48.9646 162.034 49.3139C162.356 49.6633 162.59 50.0708 162.766 50.5075C162.941 50.9442 163.029 51.3808 163.029 51.8466C163.029 52.487 162.883 53.0693 162.619 53.6515C162.356 54.2337 161.946 54.6704 161.419 55.0197C160.921 55.369 160.306 55.5437 159.633 55.5437H156.178V59.6774H154.685ZM156.149 54.2337H159.516C159.926 54.2337 160.277 54.1172 160.57 53.9135C160.863 53.7097 161.097 53.4186 161.272 53.0401C161.448 52.6617 161.536 52.2833 161.536 51.8466C161.536 51.3808 161.448 50.9733 161.243 50.6239C161.038 50.2746 160.804 49.9835 160.482 49.7797C160.16 49.5759 159.809 49.4595 159.428 49.4595H156.149V54.2337Z" fill="url(#paint10_linear_2_2)"/>
<path fill-rule="evenodd" clip-rule="evenodd" d="M143.207 34.7002C143.09 34.6711 142.973 34.642 142.856 34.642C142.709 34.642 142.563 34.6711 142.446 34.7293C142.299 34.7876 142.182 34.8749 142.065 34.9622L142.065 34.9622C141.772 35.2242 141.509 35.428 141.216 35.6027C140.985 35.7557 140.709 35.864 140.448 35.9668C140.411 35.9813 140.374 35.9958 140.338 36.0102L140.337 36.0102C140.015 36.0976 139.693 36.1849 139.313 36.214C138.961 36.2431 138.551 36.2722 138.112 36.2722C137.351 36.2722 136.619 36.1267 135.975 35.8356C135.301 35.5444 134.716 35.1078 134.218 34.5547C133.72 34.0016 133.31 33.3029 133.018 32.4587C132.725 31.6145 132.578 30.6829 132.578 29.6349C132.578 28.5869 132.696 27.6554 132.959 26.8112C133.223 25.9961 133.603 25.2974 134.072 24.7443C134.54 24.1912 135.126 23.7545 135.799 23.4634C136.473 23.1723 137.205 23.0267 137.995 23.0267C138.493 23.0267 138.932 23.0559 139.313 23.1432C139.693 23.2305 140.015 23.3179 140.308 23.4343C140.601 23.5507 140.835 23.6672 141.04 23.7836C141.245 23.9001 141.421 24.0165 141.597 24.133C141.772 24.2494 141.919 24.3367 142.094 24.4241C142.241 24.5114 142.416 24.5405 142.592 24.5405C142.856 24.5405 143.061 24.4823 143.207 24.3658C143.353 24.2494 143.47 24.133 143.588 24.0165L145.227 21.8332C144.847 21.4256 144.378 21.0763 143.88 20.727C143.383 20.3776 142.826 20.0865 142.211 19.8537C141.597 19.6208 140.952 19.417 140.279 19.2714C139.576 19.1259 138.844 19.0677 138.054 19.0677C136.502 19.0677 135.096 19.3297 133.837 19.8537C132.549 20.3776 131.466 21.1054 130.529 22.037C129.621 22.9685 128.889 24.1038 128.391 25.3847C127.894 26.6947 127.63 28.092 127.63 29.664C127.63 31.1778 127.864 32.6042 128.333 33.8851C128.801 35.1951 129.475 36.3013 130.353 37.2329C131.232 38.1644 132.286 38.9213 133.545 39.4453C134.804 39.9693 136.209 40.2604 137.819 40.2604C139.547 40.2604 141.04 39.9693 142.299 39.4162C143.558 38.8631 144.612 38.048 145.461 36.9418L143.529 34.9331C143.441 34.8167 143.324 34.7585 143.207 34.7002ZM65.7622 40.0275H70.6226V22.8521H78.4696V40.0275H83.33V19.2714H65.7622V40.0275ZM90.8256 24.7734C90.7085 26.3745 90.5621 27.7718 90.4157 28.9654C90.2693 30.1589 90.0936 31.1778 89.8886 31.9929C89.6837 32.8371 89.4787 33.5358 89.2738 34.0889C89.0688 34.642 88.8346 35.0787 88.6003 35.3989C88.3661 35.7191 88.1319 35.952 87.8976 36.0976C87.6634 36.2722 87.4291 36.3596 87.1949 36.3887L87.1247 36.3975C86.919 36.4234 86.732 36.4469 86.5215 36.4469H85.321V39.358C85.321 39.6491 85.4967 39.8529 85.848 39.9984C86.1994 40.144 86.785 40.2313 87.6341 40.2313C88.3075 40.2313 88.981 40.144 89.5958 39.9984C90.2107 39.8529 90.7963 39.5618 91.3526 39.096C91.8797 38.6593 92.4067 38.048 92.8459 37.2329C93.3144 36.4469 93.7243 35.3989 94.0756 34.0889C94.427 32.808 94.7491 31.236 95.0126 29.3729C95.2761 27.5389 95.4811 25.3265 95.6275 22.7939H100.254V39.9693H105.114V19.2714H91.0598C91.0305 21.3383 90.9427 23.1723 90.8256 24.7734ZM106.724 40.0275L114.806 19.2714H119.754L127.835 40.0275H124.087C123.648 40.0275 123.326 39.9402 123.063 39.7364C122.799 39.5326 122.623 39.2706 122.477 38.9795L121.247 35.3698H113.312L112.083 38.9795C111.995 39.2415 111.79 39.5035 111.526 39.7073C111.234 39.9111 110.911 40.0275 110.502 40.0275H106.724ZM116.357 26.4327L114.425 32.0802V32.1094H120.164L118.231 26.4327C118.085 26.0543 117.939 25.6467 117.763 25.1518C117.63 24.7761 117.513 24.3835 117.388 23.9615L117.388 23.9611L117.388 23.961C117.348 23.8273 117.307 23.6907 117.265 23.5507C117.163 23.9578 117.046 24.3363 116.935 24.6964L116.935 24.6965L116.935 24.6967C116.887 24.8516 116.841 25.003 116.797 25.1518C116.65 25.6467 116.504 26.0834 116.357 26.4327ZM145.989 23.085V19.2714H162.59V23.085H156.705V40.0275H151.874V23.085H145.989Z" fill="#304E89"/>
</g>
<defs>
<linearGradient id="paint0_linear_2_2" x1="57.4796" y1="51.4854" x2="-11.5639" y2="51.4854" gradientUnits="userSpaceOnUse">
<stop offset="0.075419" stop-color="#143C66"/>
<stop offset="0.1816" stop-color="#223E7C"/>
<stop offset="0.3045" stop-color="#3167A2"/>
<stop offset="0.4441" stop-color="#1E97A3"/>
<stop offset="0.514" stop-color="#076630"/>
<stop offset="0.8123" stop-color="#8BBD41"/>
<stop offset="0.8827" stop-color="#BED56E"/>
</linearGradient>
<linearGradient id="paint1_linear_2_2" x1="57.4796" y1="52.8768" x2="-11.5639" y2="52.8768" gradientUnits="userSpaceOnUse">
<stop offset="0.075419" stop-color="#143C66"/>
<stop offset="0.1816" stop-color="#223E7C"/>
<stop offset="0.3045" stop-color="#3167A2"/>
<stop offset="0.4441" stop-color="#1E97A3"/>
<stop offset="0.514" stop-color="#076630"/>
<stop offset="0.8123" stop-color="#8BBD41"/>
<stop offset="0.8827" stop-color="#BED56E"/>
</linearGradient>
<linearGradient id="paint2_linear_2_2" x1="57.4796" y1="49.2417" x2="-11.564" y2="49.2417" gradientUnits="userSpaceOnUse">
<stop offset="0.075419" stop-color="#143C66"/>
<stop offset="0.1816" stop-color="#223E7C"/>
<stop offset="0.3045" stop-color="#3167A2"/>
<stop offset="0.4441" stop-color="#1E97A3"/>
<stop offset="0.514" stop-color="#076630"/>
<stop offset="0.8123" stop-color="#8BBD41"/>
<stop offset="0.8827" stop-color="#BED56E"/>
</linearGradient>
<linearGradient id="paint3_linear_2_2" x1="57.4796" y1="46.2052" x2="-11.564" y2="46.2052" gradientUnits="userSpaceOnUse">
<stop offset="0.075419" stop-color="#143C66"/>
<stop offset="0.1816" stop-color="#223E7C"/>
<stop offset="0.3045" stop-color="#3167A2"/>
<stop offset="0.4441" stop-color="#1E97A3"/>
<stop offset="0.514" stop-color="#076630"/>
<stop offset="0.8123" stop-color="#8BBD41"/>
<stop offset="0.8827" stop-color="#BED56E"/>
</linearGradient>
<linearGradient id="paint4_linear_2_2" x1="39.5947" y1="35.9979" x2="41.5247" y2="-74.6506" gradientUnits="userSpaceOnUse">
<stop offset="0.0027933" stop-color="#99C4EA"/>
<stop offset="0.0164492" stop-color="#89B2DC"/>
<stop offset="0.0567124" stop-color="#5F84B6"/>
<stop offset="0.0941901" stop-color="#42639B"/>
<stop offset="0.1277" stop-color="#304E89"/>
<stop offset="0.1561" stop-color="#26427F"/>
<stop offset="0.176" stop-color="#223E7C"/>
<stop offset="0.8575" stop-color="#1E97A3"/>
</linearGradient>
<linearGradient id="paint5_linear_2_2" x1="71.3912" y1="21.3145" x2="71.3912" y2="32.6531" gradientUnits="userSpaceOnUse">
<stop offset="0.00558659" stop-color="#99C4EA"/>
<stop offset="1" stop-color="#1C3D7B"/>
</linearGradient>
<linearGradient id="paint6_linear_2_2" x1="90.6697" y1="21.3145" x2="90.6697" y2="32.6531" gradientUnits="userSpaceOnUse">
<stop offset="0.00558659" stop-color="#99C4EA"/>
<stop offset="1" stop-color="#1C3D7B"/>
</linearGradient>
<linearGradient id="paint7_linear_2_2" x1="108.047" y1="21.3145" x2="108.047" y2="32.6531" gradientUnits="userSpaceOnUse">
<stop offset="0.00558659" stop-color="#99C4EA"/>
<stop offset="1" stop-color="#1C3D7B"/>
</linearGradient>
<linearGradient id="paint8_linear_2_2" x1="125.156" y1="21.3145" x2="125.156" y2="32.6531" gradientUnits="userSpaceOnUse">
<stop offset="0.00558659" stop-color="#99C4EA"/>
<stop offset="1" stop-color="#1C3D7B"/>
</linearGradient>
<linearGradient id="paint9_linear_2_2" x1="142.109" y1="21.3145" x2="142.109" y2="32.6531" gradientUnits="userSpaceOnUse">
<stop offset="0.00558659" stop-color="#99C4EA"/>
<stop offset="1" stop-color="#1C3D7B"/>
</linearGradient>
<linearGradient id="paint10_linear_2_2" x1="158.842" y1="21.3145" x2="158.842" y2="32.6531" gradientUnits="userSpaceOnUse">
<stop offset="0.00558659" stop-color="#99C4EA"/>
<stop offset="1" stop-color="#1C3D7B"/>
</linearGradient>
<clipPath id="clip0_2_2">
<rect width="163" height="74" fill="white"/>
</clipPath>
</defs>
</svg>
