<svg width="163" height="74" viewBox="0 0 163 74" fill="none" xmlns="http://www.w3.org/2000/svg">
<g clip-path="url(#clip0_61_218)">
<path d="M26.3224 28.9653V73.9999L33.1153 70.0409V36.0684C30.1288 34.5255 27.7572 32.022 26.3224 28.9653Z" fill="url(#paint0_linear_61_218)"/>
<path d="M35.3699 37.0293V68.7311L41.7236 65.0049V37.7862C41.2551 37.8153 40.7866 37.8444 40.3181 37.8444C38.5906 37.8444 36.9217 37.5533 35.3699 37.0293Z" fill="url(#paint1_linear_61_218)"/>
<path d="M43.1875 37.5824V64.1316L50.0975 60.1143V34.3511C48.1358 35.9522 45.7934 37.0875 43.1875 37.5824Z" fill="url(#paint2_linear_61_218)"/>
<path d="M0 59.9976L6.20729 63.6365V36.1266L16.2795 30.3918V69.4586L23.1309 73.4469V18.9512L0 32.3422V59.9976Z" fill="url(#paint3_linear_61_218)"/>
<path d="M39.8204 34.9913C45.9398 34.9913 50.9174 30.0425 50.9174 23.9583C50.9174 20.5232 47.3745 13.3037 44.3001 7.68529C41.8992 3.37687 39.8204 0 39.8204 0C39.8204 0 37.5951 3.58065 35.1649 8.06373C32.1198 13.6239 28.7526 20.6105 28.7526 23.9874C28.7234 30.0716 33.6716 34.9913 39.8204 34.9913Z" fill="url(#paint4_linear_61_218)"/>
<path d="M35.6919 31.4687C30.3045 26.4034 32.1198 18.165 32.1198 18.165C27.3765 27.3641 35.6919 31.4687 35.6919 31.4687Z" fill="white"/>
<path d="M75.6587 59.6773V50.8858L71.8523 59.6773H70.9447L67.109 50.8858V59.6773H65.6451V48.1494H67.1969L71.3839 57.6687L75.6001 48.1494H77.1227V59.6773H75.6587Z" fill="white"/>
<path d="M90.0643 48.1494H91.294L96.0374 59.6773H94.4855L93.1972 56.3005H88.2197L86.9021 59.6773H85.321L90.0643 48.1494ZM92.7287 55.1652L90.6792 49.8378L88.6296 55.1652H92.7287Z" fill="white"/>
<path d="M103.035 53.826C103.035 53.1273 103.152 52.4287 103.416 51.7591C103.65 51.0895 104.031 50.4782 104.499 49.896C104.968 49.3429 105.553 48.9062 106.227 48.5569C106.9 48.2367 107.691 48.062 108.569 48.062C109.594 48.062 110.502 48.2949 111.234 48.7607C111.966 49.2264 112.522 49.8378 112.873 50.5655L111.702 51.3224C111.468 50.8275 111.175 50.4491 110.824 50.158C110.472 49.8669 110.092 49.6631 109.682 49.5467C109.272 49.4302 108.862 49.372 108.481 49.372C107.837 49.372 107.281 49.4884 106.783 49.7504C106.285 50.0124 105.875 50.3618 105.524 50.7984C105.173 51.2351 104.938 51.7009 104.763 52.254C104.587 52.778 104.499 53.3311 104.499 53.8551C104.499 54.4373 104.587 55.0195 104.792 55.5726C104.997 56.1257 105.26 56.6206 105.641 57.0282C105.992 57.4357 106.432 57.7851 106.9 58.0471C107.398 58.3091 107.925 58.4255 108.511 58.4255C108.92 58.4255 109.33 58.3673 109.74 58.2217C110.15 58.0762 110.56 57.8724 110.941 57.5522C111.321 57.2611 111.614 56.8535 111.819 56.3877L113.049 57.0573C112.815 57.6395 112.434 58.1053 111.936 58.5128C111.438 58.9204 110.882 59.2115 110.267 59.4153C109.652 59.6191 109.038 59.7355 108.452 59.7355C107.661 59.7355 106.929 59.5608 106.256 59.2115C105.583 58.8622 105.026 58.4255 104.528 57.8433C104.031 57.2611 103.679 56.6497 103.416 55.922C103.152 55.2524 103.035 54.5537 103.035 53.826Z" fill="white"/>
<path d="M129.885 49.4594H125.903V59.6773H124.439V49.4594H120.427V48.1494H129.885V49.4594Z" fill="white"/>
<path d="M146.047 58.3674V59.6773H138.171V48.1494H145.901V49.4594H139.664V53.1856H145.11V54.4083H139.664V58.3965H146.047V58.3674Z" fill="white"/>
<path d="M154.685 59.6773V48.1494H159.516C160.013 48.1494 160.482 48.2659 160.921 48.4696C161.331 48.6734 161.712 48.9645 162.034 49.3139C162.356 49.6632 162.59 50.0707 162.766 50.5074C162.941 50.9441 163.029 51.3807 163.029 51.8465C163.029 52.4869 162.883 53.0692 162.619 53.6514C162.356 54.2336 161.946 54.6703 161.419 55.0196C160.921 55.3689 160.306 55.5436 159.633 55.5436H156.178V59.6773H154.685ZM156.149 54.2336H159.516C159.926 54.2336 160.277 54.1172 160.57 53.9134C160.863 53.7096 161.097 53.4185 161.272 53.0401C161.448 52.6616 161.536 52.2832 161.536 51.8465C161.536 51.3807 161.448 50.9732 161.243 50.6238C161.038 50.2745 160.804 49.9834 160.482 49.7796C160.16 49.5759 159.809 49.4594 159.428 49.4594H156.149V54.2336Z" fill="white"/>
<path fill-rule="evenodd" clip-rule="evenodd" d="M143.207 34.7004C143.09 34.6713 142.973 34.6422 142.856 34.6422C142.709 34.6422 142.563 34.6713 142.446 34.7296C142.299 34.7878 142.182 34.8751 142.065 34.9624C141.772 35.2244 141.509 35.4282 141.216 35.6029C140.985 35.7559 140.709 35.8642 140.448 35.967C140.411 35.9815 140.374 35.996 140.338 36.0104L140.337 36.0105C140.015 36.0978 139.693 36.1851 139.313 36.2142C138.961 36.2433 138.551 36.2724 138.112 36.2724C137.351 36.2724 136.619 36.1269 135.975 35.8358C135.301 35.5447 134.716 35.108 134.218 34.5549C133.72 34.0018 133.31 33.3031 133.018 32.4589C132.725 31.6147 132.578 30.6831 132.578 29.6351C132.578 28.5871 132.696 27.6556 132.959 26.8114C133.223 25.9963 133.603 25.2976 134.072 24.7445C134.54 24.1914 135.126 23.7547 135.799 23.4636C136.473 23.1725 137.205 23.027 137.995 23.027C138.493 23.027 138.932 23.0561 139.313 23.1434C139.693 23.2307 140.015 23.3181 140.308 23.4345C140.601 23.551 140.835 23.6674 141.04 23.7838C141.245 23.9003 141.421 24.0167 141.597 24.1332C141.772 24.2496 141.919 24.337 142.094 24.4243C142.241 24.5116 142.416 24.5407 142.592 24.5407C142.856 24.5407 143.061 24.4825 143.207 24.3661C143.353 24.2496 143.47 24.1332 143.588 24.0167L145.227 21.8334C144.847 21.4259 144.378 21.0765 143.88 20.7272C143.383 20.3779 142.826 20.0868 142.211 19.8539C141.597 19.621 140.952 19.4172 140.279 19.2716C139.576 19.1261 138.844 19.0679 138.054 19.0679C136.502 19.0679 135.096 19.3299 133.837 19.8539C132.549 20.3779 131.466 21.1056 130.529 22.0372C129.621 22.9687 128.889 24.1041 128.391 25.3849C127.894 26.6949 127.63 28.0923 127.63 29.6643C127.63 31.178 127.864 32.6045 128.333 33.8853C128.801 35.1953 129.475 36.3015 130.353 37.2331C131.232 38.1646 132.286 38.9215 133.545 39.4455C134.804 39.9695 136.209 40.2606 137.819 40.2606C139.547 40.2606 141.04 39.9695 142.299 39.4164C143.558 38.8633 144.612 38.0482 145.461 36.942L143.529 34.9333C143.441 34.8169 143.324 34.7587 143.207 34.7004ZM65.7622 40.0277H70.6226V22.8523H78.4696V40.0277H83.33V19.2716H65.7622V40.0277ZM90.8256 24.7736C90.7085 26.3747 90.5621 27.772 90.4157 28.9656C90.2693 30.1591 90.0936 31.178 89.8886 31.9931C89.6837 32.8373 89.4787 33.536 89.2738 34.0891C89.0688 34.6422 88.8346 35.0789 88.6003 35.3991C88.3661 35.7193 88.1319 35.9522 87.8976 36.0978C87.6634 36.2724 87.4291 36.3598 87.1949 36.3889L87.1247 36.3977C86.919 36.4236 86.732 36.4471 86.5215 36.4471H85.321V39.3582C85.321 39.6493 85.4967 39.8531 85.848 39.9986C86.1994 40.1442 86.785 40.2315 87.6341 40.2315C88.3075 40.2315 88.981 40.1442 89.5958 39.9986C90.2107 39.8531 90.7963 39.562 91.3526 39.0962C91.8797 38.6595 92.4067 38.0482 92.8459 37.2331C93.3144 36.4471 93.7243 35.3991 94.0756 34.0891C94.427 32.8082 94.7491 31.2362 95.0126 29.3731C95.2761 27.5392 95.4811 25.3267 95.6275 22.7941H100.254V39.9695H105.114V19.2716H91.0598C91.0305 21.3385 90.9427 23.1725 90.8256 24.7736ZM106.724 40.0277L114.806 19.2716H119.754L127.835 40.0277H124.087C123.648 40.0277 123.326 39.9404 123.063 39.7366C122.799 39.5329 122.623 39.2709 122.477 38.9797L121.247 35.37H113.312L112.083 38.9797C111.995 39.2417 111.79 39.5037 111.526 39.7075C111.234 39.9113 110.911 40.0277 110.502 40.0277H106.724ZM116.357 26.4329L114.425 32.0805V32.1096H120.164L118.231 26.4329C118.085 26.0545 117.939 25.6469 117.763 25.1521C117.629 24.7761 117.513 24.3834 117.388 23.961L117.387 23.9606C117.348 23.8271 117.307 23.6907 117.265 23.551C117.163 23.958 117.046 24.3365 116.935 24.6966L116.935 24.6967L116.935 24.6969C116.887 24.8518 116.841 25.0032 116.797 25.1521C116.65 25.6469 116.504 26.0836 116.357 26.4329ZM145.989 23.0852V19.2716H162.59V23.0852H156.705V40.0277H151.874V23.0852H145.989Z" fill="white"/>
</g>
<defs>
<linearGradient id="paint0_linear_61_218" x1="57.4796" y1="51.4854" x2="-11.5639" y2="51.4854" gradientUnits="userSpaceOnUse">
<stop offset="0.075419" stop-color="#143C66"/>
<stop offset="0.1816" stop-color="#223E7C"/>
<stop offset="0.3045" stop-color="#3167A2"/>
<stop offset="0.4441" stop-color="#1E97A3"/>
<stop offset="0.514" stop-color="#076630"/>
<stop offset="0.8123" stop-color="#8BBD41"/>
<stop offset="0.8827" stop-color="#BED56E"/>
</linearGradient>
<linearGradient id="paint1_linear_61_218" x1="57.4796" y1="52.877" x2="-11.5639" y2="52.877" gradientUnits="userSpaceOnUse">
<stop offset="0.075419" stop-color="#143C66"/>
<stop offset="0.1816" stop-color="#223E7C"/>
<stop offset="0.3045" stop-color="#3167A2"/>
<stop offset="0.4441" stop-color="#1E97A3"/>
<stop offset="0.514" stop-color="#076630"/>
<stop offset="0.8123" stop-color="#8BBD41"/>
<stop offset="0.8827" stop-color="#BED56E"/>
</linearGradient>
<linearGradient id="paint2_linear_61_218" x1="57.4796" y1="49.2419" x2="-11.564" y2="49.2419" gradientUnits="userSpaceOnUse">
<stop offset="0.075419" stop-color="#143C66"/>
<stop offset="0.1816" stop-color="#223E7C"/>
<stop offset="0.3045" stop-color="#3167A2"/>
<stop offset="0.4441" stop-color="#1E97A3"/>
<stop offset="0.514" stop-color="#076630"/>
<stop offset="0.8123" stop-color="#8BBD41"/>
<stop offset="0.8827" stop-color="#BED56E"/>
</linearGradient>
<linearGradient id="paint3_linear_61_218" x1="57.4796" y1="46.2052" x2="-11.564" y2="46.2052" gradientUnits="userSpaceOnUse">
<stop offset="0.075419" stop-color="#143C66"/>
<stop offset="0.1816" stop-color="#223E7C"/>
<stop offset="0.3045" stop-color="#3167A2"/>
<stop offset="0.4441" stop-color="#1E97A3"/>
<stop offset="0.514" stop-color="#076630"/>
<stop offset="0.8123" stop-color="#8BBD41"/>
<stop offset="0.8827" stop-color="#BED56E"/>
</linearGradient>
<linearGradient id="paint4_linear_61_218" x1="39.5947" y1="35.9979" x2="41.5247" y2="-74.6506" gradientUnits="userSpaceOnUse">
<stop offset="0.0027933" stop-color="#99C4EA"/>
<stop offset="0.0164492" stop-color="#89B2DC"/>
<stop offset="0.0567124" stop-color="#5F84B6"/>
<stop offset="0.0941901" stop-color="#42639B"/>
<stop offset="0.1277" stop-color="#304E89"/>
<stop offset="0.1561" stop-color="#26427F"/>
<stop offset="0.176" stop-color="#223E7C"/>
<stop offset="0.8575" stop-color="#1E97A3"/>
</linearGradient>
<clipPath id="clip0_61_218">
<rect width="163" height="74" fill="white"/>
</clipPath>
</defs>
</svg>
