<svg width="43" height="43" viewBox="0 0 43 43" fill="none" xmlns="http://www.w3.org/2000/svg">
<path d="M21.5 0C12.6061 0 5.375 7.23105 5.375 16.125C5.375 28.0172 20.2486 42.1602 20.8869 42.7564C21.0633 42.916 21.2816 43 21.5 43C21.7184 43 21.9451 42.916 22.1131 42.7564C22.7514 42.1602 37.625 28.0172 37.625 16.125C37.625 7.23105 30.3939 0 21.5 0ZM21.5 25.0861C16.5617 25.0861 12.5389 21.0633 12.5389 16.125C12.5389 11.1867 16.5617 7.16387 21.5 7.16387C26.4383 7.16387 30.4611 11.1867 30.4611 16.125C30.4611 21.0633 26.4383 25.0861 21.5 25.0861Z" fill="#FB8500"/>
<path d="M21.5 0C12.6061 0 5.375 7.23105 5.375 16.125C5.375 28.0172 20.2486 42.1602 20.8869 42.7564C21.0633 42.916 21.2816 43 21.5 43C21.7184 43 21.9451 42.916 22.1131 42.7564C22.7514 42.1602 37.625 28.0172 37.625 16.125C37.625 7.23105 30.3939 0 21.5 0ZM21.5 25.0861C16.5617 25.0861 12.5389 21.0633 12.5389 16.125C12.5389 11.1867 16.5617 7.16387 21.5 7.16387C26.4383 7.16387 30.4611 11.1867 30.4611 16.125C30.4611 21.0633 26.4383 25.0861 21.5 25.0861Z" fill="url(#paint0_linear_176_475)"/>
<defs>
<linearGradient id="paint0_linear_176_475" x1="21.1505" y1="44.237" x2="23.1538" y2="-91.7481" gradientUnits="userSpaceOnUse">
<stop offset="0.0027933" stop-color="#99C4EA"/>
<stop offset="0.0164492" stop-color="#89B2DC"/>
<stop offset="0.0567124" stop-color="#5F84B6"/>
<stop offset="0.0941901" stop-color="#42639B"/>
<stop offset="0.1277" stop-color="#304E89"/>
<stop offset="0.1561" stop-color="#26427F"/>
<stop offset="0.176" stop-color="#223E7C"/>
<stop offset="0.8575" stop-color="#1E97A3"/>
</linearGradient>
</defs>
</svg>
