<svg width="30" height="30" viewBox="0 0 30 30" fill="none" xmlns="http://www.w3.org/2000/svg">
<g clip-path="url(#clip0_233_1013)">
<path d="M15 30C23.2843 30 30 23.2843 30 15C30 6.71573 23.2843 0 15 0C6.71573 0 0 6.71573 0 15C0 23.2843 6.71573 30 15 30Z" fill="#2A60AD"/>
<path d="M19.6566 13.9451L13.353 9.62265C13.07 9.41682 12.7612 9.3139 12.5297 9.3139C12.0408 9.3139 11.7578 9.69984 11.7578 10.3173V19.657C11.7578 20.3002 12.0408 20.6604 12.504 20.6604C12.7612 20.6604 13.0443 20.5575 13.3273 20.3516L19.6309 16.0292C20.0425 15.7462 20.2741 15.3859 20.2741 14.9743C20.2741 14.5626 20.0683 14.2281 19.6566 13.9451Z" fill="white"/>
</g>
<defs>
<clipPath id="clip0_233_1013">
<rect width="30" height="30" fill="white"/>
</clipPath>
</defs>
</svg>
