<svg width="35" height="35" viewBox="0 0 35 35" fill="none" xmlns="http://www.w3.org/2000/svg">
<circle cx="17.5" cy="17.5" r="17.5" fill="#FF0B1D"/>
<path d="M27.1666 15.0833C27.1666 13.9167 26.9166 12.6667 26.4166 11.6667C26.0833 11.25 25.5833 10.9167 25 10.8333C22.6666 10.5833 20.3333 10.5 18 10.5833C15.6666 10.5833 13.3333 10.6667 11.0833 10.8333C10.5833 10.9167 10.1666 11.0833 9.83329 11.4167C9.08329 12.0833 8.99996 13.3333 8.91663 14.25C8.83329 16.0833 8.83329 17.8333 8.91663 19.6667C8.91663 20.25 8.99996 20.75 9.16663 21.3333C9.24996 21.75 9.49996 22.1667 9.74996 22.5C10.0833 22.8333 10.5 23.0833 11 23.1667C12.8333 23.4167 14.5833 23.5 16.4166 23.4167C19.3333 23.4167 21.9166 23.4167 24.9166 23.1667C25.4166 23.0833 25.8333 22.8333 26.1666 22.5C26.4166 22.25 26.5833 22 26.6666 21.6667C27 20.75 27.0833 19.8333 27.0833 18.8333C27.1666 18.4167 27.1666 15.5833 27.1666 15.0833ZM16.0833 19.4167V14.25L21 16.8333C19.6666 17.5833 17.8333 18.4167 16.0833 19.4167Z" fill="white"/>
</svg>
